<?xml version="1.0" encoding="utf-8"?>
<!-- Generator: Adobe Illustrator 13.0.0, SVG Export Plug-In . SVG Version: 6.00 Build 14948)  -->
<!DOCTYPE svg PUBLIC "-//W3C//DTD SVG 1.1//EN" "http://www.w3.org/Graphics/SVG/1.1/DTD/svg11.dtd">
<svg version="1.1" id="Layer_1" xmlns="http://www.w3.org/2000/svg" xmlns:xlink="http://www.w3.org/1999/xlink" x="0px" y="0px"
	 width="820px" height="820px" viewBox="0 0 820 820" enable-background="new 0 0 820 820" xml:space="preserve">
<g>
	<g>
		<path fill="#EA4748" d="M258.2,205.1l139.2,210.6c10.2,13.8,29.7,16.7,43.5,6.4c13.8-10.2,16.7-29.7,6.4-43.5L308.2,168.1
			c-10.2-13.8-29.7-16.7-43.5-6.4C250.9,171.9,248,191.4,258.2,205.1z"/>
	</g>
	<g>
		<path fill="#EA4748" d="M354,205.1l139.2,210.6c10.2,13.8,29.7,16.7,43.5,6.4c13.8-10.2,16.7-29.7,6.4-43.5L403.9,168.1
			c-10.2-13.8-29.7-16.7-43.5-6.4C346.6,171.9,343.7,191.4,354,205.1z"/>
	</g>
	<g>
		<path fill="#EA4748" d="M449.7,205.1l139.2,210.6c10.2,13.8,29.7,16.7,43.5,6.4c13.8-10.2,16.7-29.7,6.4-43.5L499.6,168.1
			c-10.2-13.8-29.7-16.7-43.5-6.4C442.4,171.9,439.5,191.4,449.7,205.1z"/>
	</g>
	<g>
		<path fill="#EA4748" d="M545.4,205.1l139.2,210.6c10.2,13.8,29.7,16.7,43.5,6.4c13.8-10.2,16.7-29.7,6.4-43.5L595.4,168.1
			c-10.2-13.8-29.7-16.7-43.5-6.4C538.1,171.9,535.2,191.4,545.4,205.1z"/>
	</g>
	<g>
		<path fill="#EA4748" d="M638.6,205.1l88.6,135.4c10.2,13.8,29.7,16.7,43.5,6.4c13.8-10.2,16.7-29.7,6.4-43.5l-88.6-135.4
			c-10.2-13.8-29.7-16.7-43.5-6.4C631.2,171.9,628.3,191.4,638.6,205.1z"/>
	</g>
	<g>
		<path fill="#EA4748" d="M729.8,203.4l33.7,48.3c10.2,13.8,29.7,16.7,43.5,6.4c13.8-10.2,16.7-29.7,6.4-43.5l-33.7-48.3
			c-10.2-13.8-29.7-16.7-43.5-6.4C722.4,170.2,719.5,189.7,729.8,203.4z"/>
	</g>
	<path fill="#2C4453" d="M257.4,104l-37.1-43.4c-6.5-7.4-15.6-11-24.7-10.6c-0.5,0-1,0-1.4,0H38.3C21.2,50,7.3,63.9,7.3,81
		c0,17.2,13.9,31.1,31.1,31.1h144.2l28.1,32.8c11.3,12.9,30.9,14.2,43.9,2.9C267.4,136.5,268.7,116.9,257.4,104z"/>
	<g>
		<circle fill="#2C4453" cx="488.8" cy="489.2" r="49.7"/>
	</g>
	<g>
		<circle fill="#2C4453" cx="660.3" cy="489.2" r="49.7"/>
	</g>
	<g>
		<path fill="#EA4748" d="M53.3,691.3c1.9,5.5,4.7,9.5,8.3,12c3.9,2.9,8.2,4.4,13,4.4c5.4,0,10.6-1.3,15.6-3.8l7.9-3.9
			c1.3-0.7,3.1-1.1,5.3-1.3c2,0,3.9,0.5,5.8,1.6c1.9,1,3.4,2.5,4.5,4.2c1.1,1.8,1.7,3.6,1.7,5.5c0,5.2-3.7,9.9-11.1,14.1
			c-9,5.1-19.4,7.7-31.1,7.7c-7.7,0-14.9-1.5-21.7-4.5c-6.8-3-12.6-7.4-17.5-13.2c-6.9-8.4-10.4-19.2-10.4-32.4
			c0-8.8,2.1-17,6.3-24.6c4.2-7.5,9.9-13.5,17.3-18c7.3-4.4,15.4-6.6,24.1-6.6c8.4,0,16.1,2.1,23.1,6.3c7,4.2,12.5,9.8,16.5,16.9
			c4,7.1,6,14.8,6,23c0,4.4-0.9,7.6-2.7,9.6s-4.9,3-9.1,3H53.3z M89.7,672.4c-2.9-11.6-9.2-17.3-18.9-17.3
			c-8.5,0-14.6,5.8-18.4,17.3H89.7z"/>
		<path fill="#2C4453" d="M126.8,641.3c0-8.1,2.1-15.2,6.3-21.3s9.9-10.8,16.9-14c7-3.3,14.5-4.9,22.4-4.9c4.8,0,9.8,0.5,15.2,1.5
			c5.4,1,10.1,2.9,14.1,5.5c4,2.6,6,6.2,6,10.7c0,3.9-1.2,7.3-3.7,10c-2.5,2.8-5.6,4.1-9.5,4.1c-1.7,0-3.1-0.2-4.3-0.6l-5.3-1.9
			c-4.6-1.6-8.9-2.4-13-2.4c-3.6,0-6.9,0.9-9.8,2.7c-3,1.8-4.5,4.4-4.5,7.6c0,5.2,3.9,8.7,11.7,10.8l7.7,2.1
			c12.1,3.3,21.8,7.7,28.9,13.3c7.1,5.6,10.7,13.7,10.7,24.4c0,13-3.6,23.2-10.7,30.7c-4.3,4.6-9.6,8-16,10.2
			c-6.4,2.1-13.2,3.2-20.2,3.2c-12.8,0-23.8-2.2-33-6.6c-3.2-1.5-5.8-3.6-7.8-6.3c-2-2.6-2.9-5.6-2.9-9c0-3.3,1.2-6.3,3.7-9
			c2.5-2.7,5.4-4,8.7-4c2.8,0,5.3,0.4,7.4,1.3l10,3.7c4.8,1.9,9.6,2.9,14.1,2.9c4.1,0,7.8-1.2,11-3.5s4.8-5.5,4.8-9.5
			c0-4.1-1.6-7.2-4.7-9.2c-2.6-1.6-5.1-2.8-7.5-3.7c-2.5-0.8-6.7-2.1-12.6-3.9c-7.7-2.2-13.9-4.6-18.5-7c-4.7-2.5-8.4-5.9-11.2-10.4
			C128.2,654.4,126.8,648.6,126.8,641.3z"/>
		<path fill="#2C4453" d="M258.3,640.5c8.8-5.3,17.1-7.9,24.8-7.9c10.2,0,18.5,3,24.9,9.1c6.3,6,9.4,14.6,9.4,26v48.1
			c0,4.4-1.2,8.1-3.7,11c-2.5,2.9-5.9,4.4-10.2,4.4c-4.2,0-7.5-1.5-10-4.5s-3.7-6.7-3.7-11v-40.4c0-5.5-1.3-10.1-3.9-13.6
			s-6.6-5.4-12-5.4c-4.5,0-8.2,1.7-11.2,5.1c-3,3.4-4.5,7.4-4.5,12v42.3c0,4.4-1.2,8.1-3.7,11c-2.5,2.9-5.9,4.4-10.2,4.4
			c-4.2,0-7.5-1.5-10-4.5s-3.7-6.6-3.7-11V607c0-2.7,0.5-5.3,1.6-7.6c1.1-2.4,2.7-4.2,4.8-5.6c2.1-1.3,4.6-2,7.4-2
			c4.3,0,7.7,1.5,10.2,4.4c2.5,2.9,3.7,6.5,3.7,10.9V640.5z"/>
		<path fill="#2C4453" d="M329.7,682.2c0-6.6,1-12.9,3.1-18.9c2.1-6,5.2-11.3,9.3-15.8c4.4-4.7,9.5-8.4,15.5-11.1
			c6-2.7,12.1-4,18.5-4c6.3,0,12.4,1.3,18.4,4c6,2.7,11.2,6.4,15.5,11.1c4.1,4.6,7.2,9.8,9.2,15.8c2,6,3,12.3,3,18.9
			c0,6.5-1,12.8-3,18.7c-2,5.9-5.1,11.2-9.2,15.8c-4.2,4.7-9.3,8.4-15.3,11.1c-6,2.7-12.1,4-18.4,4c-6.4,0-12.6-1.3-18.7-4
			c-6-2.7-11.2-6.4-15.5-11.1C333.9,707.9,329.7,696.4,329.7,682.2z M357.1,682.2c0,3.7,0.7,7.5,2.1,11.1s3.5,6.7,6.3,9.1
			c2.8,2.4,6.1,3.5,10,3.5c4,0,7.5-1.2,10.5-3.5c3-2.3,5.2-5.3,6.8-9c1.6-3.7,2.3-7.4,2.3-11.2c0-3.8-0.8-7.6-2.3-11.4
			c-1.5-3.7-3.8-6.8-6.8-9.1c-3-2.3-6.5-3.5-10.5-3.5c-5.8,0-10.3,2.5-13.5,7.4C358.7,670.7,357.1,676.2,357.1,682.2z"/>
		<path fill="#2C4453" d="M461.4,643.7c6.6-7.4,14.2-11.1,22.8-11.1c11,0,20.3,3.5,27.7,10.6c4.8,4.7,8.6,10.4,11.2,16.9
			s3.9,13.2,3.9,20.1c0,8.9-1.7,17.3-5,25.2c-3.3,7.9-8.2,14.3-14.8,19.1c-6.5,4.9-14.3,7.3-23.2,7.3c-7.4,0-14.6-2.7-21.7-8.1v29.8
			c0,4.4-1.2,8.1-3.7,11c-2.5,2.9-5.9,4.4-10.2,4.4c-4.2,0-7.5-1.5-10-4.5s-3.7-6.6-3.7-11V649.6c0-4.6,1.1-8.5,3.3-11.6
			c2.2-3.2,5.5-4.7,9.9-4.7c3.5,0,6.3,0.9,8.3,2.6S459.9,640.3,461.4,643.7z M461.4,682.2c0,4,0.8,7.9,2.3,11.6
			c1.5,3.7,3.8,6.7,6.8,9c3,2.3,6.6,3.4,10.8,3.4c3.7,0,7-1.2,9.7-3.6c2.8-2.4,4.9-5.5,6.3-9.2c1.4-3.7,2.1-7.4,2.1-11.2
			c0-3.7-0.7-7.4-2.1-11.2c-1.4-3.7-3.5-6.8-6.3-9.2c-2.8-2.4-6-3.6-9.7-3.6c-4.2,0-7.8,1.1-10.8,3.4c-3,2.3-5.3,5.3-6.8,8.9
			C462.2,674.3,461.4,678.2,461.4,682.2z"/>
		<path fill="#2C4453" d="M566,643.7c6.6-7.4,14.2-11.1,22.8-11.1c11,0,20.3,3.5,27.7,10.6c4.8,4.7,8.6,10.4,11.2,16.9
			s3.9,13.2,3.9,20.1c0,8.9-1.7,17.3-5,25.2c-3.3,7.9-8.2,14.3-14.8,19.1c-6.5,4.9-14.3,7.3-23.2,7.3c-7.4,0-14.6-2.7-21.7-8.1v29.8
			c0,4.4-1.2,8.1-3.7,11c-2.5,2.9-5.9,4.4-10.2,4.4c-4.2,0-7.5-1.5-10-4.5s-3.7-6.6-3.7-11V649.6c0-4.6,1.1-8.5,3.3-11.6
			c2.2-3.2,5.5-4.7,9.9-4.7c3.5,0,6.3,0.9,8.3,2.6S564.5,640.3,566,643.7z M566,682.2c0,4,0.8,7.9,2.3,11.6c1.5,3.7,3.8,6.7,6.8,9
			c3,2.3,6.6,3.4,10.8,3.4c3.7,0,7-1.2,9.7-3.6c2.8-2.4,4.9-5.5,6.3-9.2c1.4-3.7,2.1-7.4,2.1-11.2c0-3.7-0.7-7.4-2.1-11.2
			c-1.4-3.7-3.5-6.8-6.3-9.2c-2.8-2.4-6-3.6-9.7-3.6c-4.2,0-7.8,1.1-10.8,3.4c-3,2.3-5.3,5.3-6.8,8.9
			C566.8,674.3,566,678.2,566,682.2z"/>
		<path fill="#2C4453" d="M668.7,691.3c1.9,5.5,4.7,9.5,8.3,12c3.9,2.9,8.2,4.4,13,4.4c5.4,0,10.6-1.3,15.6-3.8l7.9-3.9
			c1.3-0.7,3.1-1.1,5.3-1.3c2,0,3.9,0.5,5.8,1.6c1.9,1,3.4,2.5,4.5,4.2c1.1,1.8,1.7,3.6,1.7,5.5c0,5.2-3.7,9.9-11.1,14.1
			c-9,5.1-19.4,7.7-31.1,7.7c-7.7,0-14.9-1.5-21.7-4.5c-6.8-3-12.6-7.4-17.5-13.2c-6.9-8.4-10.4-19.2-10.4-32.4
			c0-8.8,2.1-17,6.3-24.6s9.9-13.5,17.3-18c7.3-4.4,15.4-6.6,24.1-6.6c8.4,0,16.1,2.1,23.1,6.3c7,4.2,12.5,9.8,16.5,16.9
			c4,7.1,6,14.8,6,23c0,4.4-0.9,7.6-2.7,9.6c-1.8,2-4.9,3-9.1,3H668.7z M705.1,672.4c-2.9-11.6-9.2-17.3-18.9-17.3
			c-8.5,0-14.6,5.8-18.4,17.3H705.1z"/>
		<path fill="#2C4453" d="M772.2,643c6.6-6.9,12.8-10.4,18.6-10.4c4,0,7.4,1.3,10.3,3.8c2.9,2.5,4.3,5.7,4.3,9.6
			c0,4-1.2,6.9-3.5,8.6c-2.3,1.7-5.9,3.4-10.7,4.9c-6.7,2.3-11.6,4.6-14.7,7c-2.9,2.3-4.3,6-4.3,11.3v37.9c0,4.4-1.2,8.1-3.7,11
			c-2.5,2.9-5.9,4.4-10.2,4.4c-4.2,0-7.5-1.5-10-4.5s-3.7-6.6-3.7-11v-66.7c0-5,1.1-8.7,3.4-11.1c2.8-3.1,6.1-4.7,10-4.7
			C764.3,633.2,769.1,636.5,772.2,643z"/>
	</g>
</g>
</svg>
