<?xml version="1.0" encoding="UTF-8" standalone="no"?>
<svg  viewBox="0 0 13 12" version="1.1" xmlns="http://www.w3.org/2000/svg" xmlns:xlink="http://www.w3.org/1999/xlink" xmlns:sketch="http://www.bohemiancoding.com/sketch/ns">
    <!-- Generator: Sketch 3.4.2 (15857) - http://www.bohemiancoding.com/sketch -->
    <title>Slice 1</title>
    <desc>Created with Sketch.</desc>
    <defs></defs>
    <g id="Page-1" stroke="none" stroke-width="1" fill="none" fill-rule="evenodd" sketch:type="MSPage">
        <path d="M13,5.5704388 C13,3.1039261 11.193,1.24711316 9.126,0.47113164 C8.281,0.152424942 7.384,0 6.5,0 C5.603,0 4.706,0.152424942 3.861,0.47113164 C1.807,1.26096998 0,3.1039261 0,5.5704388 C0,6.7482679 0.455,7.87066975 1.17,8.75750577 C1.105,9.86605081 0.611,11.113164 0,12 L3.939,10.7251732 L3.913,10.6836028 C4.745,11.0023095 5.616,11.1547344 6.5,11.1547344 C7.384,11.1547344 8.281,11.0023095 9.126,10.6836028 C11.193,9.89376443 13,8.0369515 13,5.5704388 L13,5.5704388 Z" id="Icon" fill="#6E7376" sketch:type="MSShapeGroup"></path>
    </g>
</svg>