<?xml version="1.0" encoding="UTF-8" standalone="no"?>
<svg viewBox="0 0 11 11" version="1.1" xmlns="http://www.w3.org/2000/svg" xmlns:xlink="http://www.w3.org/1999/xlink" xmlns:sketch="http://www.bohemiancoding.com/sketch/ns">
    <!-- Generator: Sketch 3.4.2 (15857) - http://www.bohemiancoding.com/sketch -->
    <title>Slice 1</title>
    <desc>Created with Sketch.</desc>
    <defs></defs>
    <g id="Page-1" stroke="none" stroke-width="1" fill="none" fill-rule="evenodd" sketch:type="MSPage">
        <path d="M11,3.135 C11,1.38875 9.66782007,0 8.06920415,0 C7.00346021,0 6.01384083,0.61875 5.49365629,1.6225 L5.49365629,1.6225 C4.97347174,0.61875 3.99653979,0 2.93079585,0 C1.33217993,0 0,1.38875 0,3.135 C0,3.575 0.0888119954,3.96 0.228373702,4.3725 C0.380622837,4.785 0.60899654,5.1975 0.824682814,5.5825 C2.00461361,7.645 3.75547866,9.50125 5.49365629,11 C7.24452134,9.50125 8.99538639,7.645 10.1753172,5.5825 C10.3910035,5.1975 10.6193772,4.785 10.7589389,4.3725 C10.8985006,3.96 11,3.575 11,3.135 L11,3.135 Z" id="Icon" fill="#6E7376" sketch:type="MSShapeGroup"></path>
    </g>
</svg>