<?xml version="1.0" encoding="UTF-8" standalone="no"?>
<svg viewBox="0 0 16 16" version="1.1" xmlns="http://www.w3.org/2000/svg" xmlns:xlink="http://www.w3.org/1999/xlink" xmlns:sketch="http://www.bohemiancoding.com/sketch/ns">
    <!-- Generator: Sketch 3.4.2 (15857) - http://www.bohemiancoding.com/sketch -->
    <title>Slice 1</title>
    <desc>Created with Sketch.</desc>
    <defs></defs>
    <g id="Page-1" stroke="none" stroke-width="1" fill="none" fill-rule="evenodd" sketch:type="MSPage">
        <path d="M14.592,0 L1.408,0 C0.64,0 0,0.64 0,1.408 L0,5.328 L5.328,5.328 C6.128,4.752 6.976,4.256 8,4.256 C8.992,4.256 9.888,4.752 10.672,5.328 L16,5.328 L16,1.408 C16,0.64 15.36,0 14.592,0 L14.592,0 Z M14.928,3.712 C14.928,4.016 14.688,4.272 14.384,4.272 L12.288,4.272 C11.984,4.272 11.728,4.016 11.728,3.712 L11.728,1.616 C11.728,1.312 11.984,1.072 12.288,1.072 L14.384,1.072 C14.688,1.072 14.928,1.312 14.928,1.616 L14.928,3.712 Z M8,5.872 C6.528,5.872 5.328,7.056 5.328,8.528 C5.328,10 6.528,11.2 8,11.2 C9.472,11.2 10.672,10 10.672,8.528 C10.672,7.056 9.472,5.872 8,5.872 Z M12.08,7.472 C12.176,7.792 12.208,8.128 12.208,8.464 C12.208,10.8 10.32,12.688 8,12.688 C5.68,12.688 3.792,10.8 3.792,8.464 C3.792,8.128 3.824,7.792 3.92,7.472 L0,7.472 L0,14.592 C0,15.36 0.64,16 1.408,16 L14.592,16 C15.36,16 16,15.36 16,14.592 L16,7.472 L12.08,7.472 Z" id="Instagram" fill="#FFFFFF" sketch:type="MSShapeGroup"></path>
    </g>
</svg>