<?xml version="1.0" encoding="UTF-8" standalone="no"?>
<svg  viewBox="0 0 17 16" version="1.1" xmlns="http://www.w3.org/2000/svg" xmlns:xlink="http://www.w3.org/1999/xlink" xmlns:sketch="http://www.bohemiancoding.com/sketch/ns">
    <!-- Generator: Sketch 3.4.2 (15857) - http://www.bohemiancoding.com/sketch -->
    <title>Slice 1</title>
    <desc>Created with Sketch.</desc>
    <defs></defs>
    <g id="Page-1" stroke="none" stroke-width="1" fill="none" fill-rule="evenodd" sketch:type="MSPage">
        <g id="Layer_1" sketch:type="MSLayerGroup" fill="#3C3D41">
            <path d="M8,0 C3.62666667,0 0,3.62666667 0,8 C0,11.3066667 1.92,14.08 4.8,15.36 C4.8,14.8266667 4.8,14.08 4.90666667,13.5466667 C5.01333333,12.9066667 5.97333333,9.17333333 5.97333333,9.17333333 C5.97333333,9.17333333 5.76,8.64 5.76,7.89333333 C5.76,6.72 6.4,5.86666667 7.25333333,5.86666667 C8,5.86666667 8.32,6.4 8.32,7.04 C8.32,7.78666667 7.89333333,8.85333333 7.57333333,9.92 C7.36,10.7733333 8,11.4133333 8.85333333,11.4133333 C10.3466667,11.4133333 11.4133333,9.49333333 11.4133333,7.14666667 C11.4133333,5.44 10.24,4.05333333 8.10666667,4.05333333 C5.65333333,4.05333333 4.16,5.86666667 4.16,7.89333333 C4.16,8.64 4.37333333,9.06666667 4.69333333,9.49333333 C4.8,9.70666667 4.90666667,9.70666667 4.8,9.92 C4.8,10.0266667 4.69333333,10.4533333 4.58666667,10.56 C4.58666667,10.7733333 4.37333333,10.88 4.16,10.7733333 C3.09333333,10.3466667 2.56,9.06666667 2.56,7.68 C2.56,5.44 4.48,2.66666667 8.32,2.66666667 C11.4133333,2.66666667 13.44,4.90666667 13.44,7.25333333 C13.44,10.3466667 11.7333333,12.6933333 9.17333333,12.6933333 C8.32,12.6933333 7.46666667,12.2666667 7.25333333,11.7333333 C7.25333333,11.7333333 6.82666667,13.5466667 6.72,13.9733333 C6.50666667,14.6133333 6.18666667,15.2533333 5.86666667,15.68 C6.61333333,15.8933333 7.36,16 8.10666667,16 C12.48,16 16.1066667,12.3733333 16.1066667,8 C16,3.52 12.48,0 8,0" id="Shape" sketch:type="MSShapeGroup"></path>
        </g>
    </g>
</svg>