<?xml version="1.0" encoding="UTF-8" standalone="no"?>
<svg viewBox="0 0 20 20" version="1.1" xmlns="http://www.w3.org/2000/svg" xmlns:xlink="http://www.w3.org/1999/xlink" xmlns:sketch="http://www.bohemiancoding.com/sketch/ns">
    <!-- Generator: Sketch 3.4.2 (15857) - http://www.bohemiancoding.com/sketch -->
    <title>Slice 1</title>
    <desc>Created with Sketch.</desc>
    <defs></defs>
    <g id="Page-1" stroke="none" stroke-width="1" fill="none" fill-rule="evenodd" sketch:type="MSPage">
        <path d="M13.62,8.18 C13.62,11.18 11.18,13.62 8.18,13.62 C5.18,13.62 2.72,11.18 2.72,8.18 C2.72,5.16 5.16,2.72 8.18,2.72 C11.18,2.72 13.62,5.18 13.62,8.18 L13.62,8.18 Z M14.92,12.8 C15.86,11.46 16.36,9.82 16.36,8.18 C16.36,3.66 12.7,0 8.18,0 C3.66,0 0,3.66 0,8.18 C0,12.7 3.66,16.36 8.18,16.36 C9.82,16.36 11.46,15.84 12.82,14.92 L17.9,20 L20,17.9 L14.92,12.8 Z" id="Icon" fill="#2c4453" sketch:type="MSShapeGroup"></path>
    </g>
</svg>