<?xml version="1.0" encoding="utf-8"?>
<!-- Generator: Adobe Illustrator 19.0.0, SVG Export Plug-In . SVG Version: 6.00 Build 0)  -->
<svg version="1.1" id="Layer_1" xmlns="http://www.w3.org/2000/svg" xmlns:xlink="http://www.w3.org/1999/xlink" x="0px" y="0px"
	 viewBox="0 0 16 16" style="enable-background:new 0 0 16 16;" xml:space="preserve">
<style type="text/css">
	.st0{fill:#3C3D41;}
</style>
<g id="XMLID_4_">
	<g id="XMLID_5_">
		<path id="XMLID_6_" class="st0" d="M8,0C3.6,0,0,3.6,0,8s3.6,8,8,8s8-3.6,8-8C16,3.6,12.4,0,8,0z M12,6.2l0,0.3
			c0,2.6-2,5.6-5.6,5.6c-1.1,0-2.1-0.3-3-0.9c0.2,0,0.3,0,0.5,0c0.9,0,1.8-0.3,2.4-0.8c-0.9,0-1.6-0.6-1.8-1.4c0.1,0,0.2,0,0.4,0
			C5,9,5.2,9,5.3,9C4.4,8.8,3.8,8,3.8,7v0C4,7.2,4.3,7.2,4.7,7.3c-0.5-0.4-0.9-1-0.9-1.6c0-0.4,0.1-0.7,0.3-1c1,1.2,2.4,2,4,2.1
			C8.1,6.5,8,6.4,8,6.2c0-1.1,0.9-2,2-2c0.6,0,1.1,0.2,1.4,0.6c0.4-0.1,0.9-0.3,1.2-0.5c-0.1,0.5-0.5,0.8-0.9,1.1
			c0.4,0,0.8-0.2,1.1-0.3C12.7,5.6,12.4,5.9,12,6.2z"/>
	</g>
</g>
</svg>
